<?xml version="1.0" encoding="UTF-8" standalone="no"?>
<!-- Created with Inkscape (http://www.inkscape.org/) -->

<svg
   xmlns:dc="http://purl.org/dc/elements/1.1/"
   xmlns:cc="http://creativecommons.org/ns#"
   xmlns:rdf="http://www.w3.org/1999/02/22-rdf-syntax-ns#"
   xmlns:svg="http://www.w3.org/2000/svg"
   xmlns="http://www.w3.org/2000/svg"
   xmlns:sodipodi="http://sodipodi.sourceforge.net/DTD/sodipodi-0.dtd"
   xmlns:inkscape="http://www.inkscape.org/namespaces/inkscape"
   width="105mm"
   height="105mm"
   viewBox="0 0 105 105"
   version="1.1"
   id="svg3801"
   inkscape:version="0.92.5 (2060ec1f9f, 2020-04-08)"
   sodipodi:docname="sammen ii.svg">
  <defs
     id="defs3795" />
  <sodipodi:namedview
     id="base"
     pagecolor="#ffffff"
     bordercolor="#666666"
     borderopacity="1.0"
     inkscape:pageopacity="0.0"
     inkscape:pageshadow="2"
     inkscape:zoom="1.4"
     inkscape:cx="250.38812"
     inkscape:cy="129.69542"
     inkscape:document-units="mm"
     inkscape:current-layer="layer1"
     showgrid="false"
     inkscape:pagecheckerboard="true"
     inkscape:window-width="1918"
     inkscape:window-height="2071"
     inkscape:window-x="3832"
     inkscape:window-y="0"
     inkscape:window-maximized="0">
    <inkscape:grid
       type="xygrid"
       id="grid3814" />
  </sodipodi:namedview>
  <metadata
     id="metadata3798">
    <rdf:RDF>
      <cc:Work
         rdf:about="">
        <dc:format>image/svg+xml</dc:format>
        <dc:type
           rdf:resource="http://purl.org/dc/dcmitype/StillImage" />
        <dc:title></dc:title>
      </cc:Work>
    </rdf:RDF>
  </metadata>
  <g
     inkscape:label="Layer 1"
     inkscape:groupmode="layer"
     id="layer1"
     transform="translate(0,-192)">
    <g
       id="g4651"
       transform="matrix(1.0541299,0,0,0.99276514,-2.4499162,190.14085)">
      <circle
         r="14.098467"
         style="fill:#ea9e34;fill-opacity:1;stroke-width:0.24326968"
         cy="25.272692"
         cx="69.656471"
         id="path3818" />
      <ellipse
         ry="15.234363"
         rx="15.167545"
         id="circle3820"
         cx="33.742775"
         cy="17.836969"
         style="fill:#a23c3a;fill-opacity:1;stroke:none;stroke-width:0.2622925;stroke-opacity:1" />
      <path
         sodipodi:nodetypes="sssssssssssssssssssssssss"
         inkscape:connector-curvature="0"
         id="path3822"
         d="m 45.435818,42.82667 c -4.009145,-2.419238 -8.07103,-5.277305 -12.6953,-6.013564 -4.878026,-0.776661 -10.158457,-0.07187 -14.699825,1.870887 -4.483755,1.918113 -8.8098778,5.063224 -11.3589548,9.220798 -2.6669368,4.349805 -3.6769661,9.886472 -3.2072344,14.967093 0.4577276,4.950785 3.0458839,9.589747 5.7462948,13.764381 3.6800964,5.689155 8.7525134,10.425126 13.8980154,14.83346 6.061226,5.192867 12.596852,10.013395 19.777944,13.497105 1.470371,0.71331 3.051335,1.63525 4.677217,1.46999 1.368803,-0.13913 2.722612,-0.95152 3.608138,-2.00453 0.698157,-0.8302 1.079907,-1.98891 1.069078,-3.07359 -0.0128,-1.28249 -0.42728,-2.703409 -1.336347,-3.608143 C 47.354438,94.207121 43.204546,91.306622 39.689524,87.72795 36.723689,84.708409 33.810338,81.588224 31.404168,78.106248 29.126424,74.810119 26.851834,71.373632 25.657874,67.5491 c -0.747622,-2.394807 -1.399698,-5.047039 -0.801808,-7.483546 0.612416,-2.495702 2.143691,-4.980764 4.276313,-6.414468 2.037251,-1.369589 4.774777,-1.725415 7.216277,-1.469983 2.559632,0.267791 4.810635,1.864712 7.082642,3.073601 1.679955,0.893871 2.934204,2.758238 4.81085,3.073599 1.129411,0.189792 2.379306,-0.179729 3.34087,-0.80181 1.039841,-0.672723 1.985407,-1.735055 2.271792,-2.939965 0.325243,-1.368398 -0.181566,-2.8803 -0.80181,-4.142676 -1.0995,-2.237801 -3.113456,-3.920328 -4.944485,-5.612659 -0.817816,-0.755867 -1.719218,-1.429165 -2.672697,-2.004523 z"
         style="fill:#a23c3a;fill-opacity:1;stroke:none;stroke-width:0.26458332px;stroke-linecap:butt;stroke-linejoin:miter;stroke-opacity:1" />
      <path
         style="fill:#ea9e34;fill-opacity:1;stroke:none;stroke-width:0.24985279px;stroke-linecap:butt;stroke-linejoin:miter;stroke-opacity:1"
         d="m 65.904925,44.677508 c 3.291627,-1.622905 6.990507,-2.572672 10.655009,-2.772801 3.572879,-0.195125 7.340784,0.127005 10.62123,1.556065 4.227235,1.841509 8.367745,4.753704 10.788897,8.65712 2.533089,4.083897 3.492429,9.282101 3.046269,14.052138 -0.43475,4.648137 -2.893019,9.003514 -5.457907,12.922948 -3.495407,5.34137 -8.31326,9.787826 -13.200529,13.926674 -5.757037,4.875421 -11.964666,9.401258 -18.785368,12.672008 -1.396579,0.66971 -2.898201,1.53529 -4.442486,1.38013 -1.300108,-0.13063 -2.585975,-0.89335 -3.42706,-1.88199 -0.663119,-0.77945 -1.025711,-1.86733 -1.015425,-2.8857 0.01216,-1.20409 0.405836,-2.538144 1.269281,-3.387571 3.381723,-3.326822 7.323349,-6.05001 10.661966,-9.409913 2.816991,-2.834953 5.584133,-5.764398 7.869547,-9.033517 2.163433,-3.094633 5.125679,-7.122852 6.393353,-10.112229 0.920534,-2.170763 1.513867,-4.664997 1.028838,-6.959251 -0.567431,-2.684026 -2.159955,-5.368126 -4.395788,-6.957787 -1.893223,-1.346068 -4.500336,-1.987964 -6.787304,-1.580574 -2.562916,0.456546 -4.571885,2.303153 -6.526739,4.288874 -1.895879,1.925816 -3.346858,5.053155 -5.972579,6.226575 -1.027298,0.459094 -2.377543,0.639154 -3.373657,0.115831 -1.364741,-0.716986 -2.531433,-2.571569 -2.491867,-3.896136 0.08722,-2.919876 1.609504,-4.656765 3.100179,-6.562126 1.835271,-2.345818 3.360413,-4.471539 5.364515,-6.405445 1.543569,-1.489503 3.153711,-3.004756 5.077625,-3.953323 z"
         id="path4645"
         inkscape:connector-curvature="0"
         sodipodi:nodetypes="aaassssssssssssaaasaassaa" />
    </g>
  </g>
</svg>
